<?xml version="1.0" encoding="UTF-8"?>
<svg version="1.1" xmlns="http://www.w3.org/2000/svg" width="512" height="512">
<path d="M0 0 C1.01790619 0.00215515 2.03581238 0.0043103 3.08456421 0.00653076 C17.69363523 0.05620146 32.02575853 0.30709809 46.375 3.3125 C47.34985352 3.51117676 48.32470703 3.70985352 49.32910156 3.91455078 C97.7109774 14.03517194 141.69928269 35.9516877 177.375 70.3125 C178.3640332 71.26068604 178.3640332 71.26068604 179.37304688 72.22802734 C188.86130305 81.37247479 197.6012044 90.66984009 205.375 101.3125 C206.23306152 102.46355017 207.09113451 103.61459177 207.94921875 104.765625 C213.98736829 112.95680614 219.34595521 121.47054105 224.375 130.3125 C224.73948242 130.94430176 225.10396484 131.57610352 225.47949219 132.22705078 C247.08534998 169.97532572 256.85198095 212.74189997 256.6875 255.9375 C256.68534485 256.95540619 256.6831897 257.97331238 256.68096924 259.02206421 C256.63129854 273.63113523 256.38040191 287.96325853 253.375 302.3125 C253.07698486 303.77478027 253.07698486 303.77478027 252.77294922 305.26660156 C242.65232806 353.6484774 220.7358123 397.63678269 186.375 433.3125 C185.74287598 433.97185547 185.11075195 434.63121094 184.45947266 435.31054688 C175.31502521 444.79880305 166.01765991 453.5387044 155.375 461.3125 C154.22394983 462.17056152 153.07290823 463.02863451 151.921875 463.88671875 C143.73224019 469.92427396 135.22961724 475.30707302 126.375 480.3125 C125.66778809 480.7146875 124.96057617 481.116875 124.23193359 481.53125 C101.09654164 494.5566741 75.92537591 503.30551461 49.9375 508.625 C49.21860596 508.77235596 48.49971191 508.91971191 47.7590332 509.0715332 C33.08339502 511.86090125 18.55831162 512.66142619 3.64770508 512.62817383 C0.70811513 512.6250221 -2.2304558 512.64854926 -5.16992188 512.67382812 C-18.54306192 512.71848737 -31.43916711 511.51301542 -44.625 509.3125 C-46.33055054 509.03031616 -46.33055054 509.03031616 -48.07055664 508.74243164 C-91.33802759 500.97044532 -132.38793216 480.98345309 -165.625 452.3125 C-166.37007813 451.67828125 -167.11515625 451.0440625 -167.8828125 450.390625 C-181.38779833 438.57948485 -194.05918743 425.82889772 -204.625 411.3125 C-205.48149066 410.16255169 -206.33826433 409.01281411 -207.1953125 407.86328125 C-213.23534209 399.67315742 -218.61867614 391.16870382 -223.625 382.3125 C-224.0271875 381.60528809 -224.429375 380.89807617 -224.84375 380.16943359 C-237.8691741 357.03404164 -246.61801461 331.86287591 -251.9375 305.875 C-252.08485596 305.15610596 -252.23221191 304.43721191 -252.3840332 303.6965332 C-255.35789088 288.05024391 -255.99800362 272.57681954 -255.9375 256.6875 C-255.93534485 255.66959381 -255.9331897 254.65168762 -255.93096924 253.60293579 C-255.88129854 238.99386477 -255.63040191 224.66174147 -252.625 210.3125 C-252.42632324 209.33764648 -252.22764648 208.36279297 -252.02294922 207.35839844 C-241.90232806 158.9765226 -219.9858123 114.98821731 -185.625 79.3125 C-184.99287598 78.65314453 -184.36075195 77.99378906 -183.70947266 77.31445312 C-174.56502521 67.82619695 -165.26765991 59.0862956 -154.625 51.3125 C-153.47394983 50.45443848 -152.32290823 49.59636549 -151.171875 48.73828125 C-142.98224019 42.70072604 -134.47961724 37.31792698 -125.625 32.3125 C-124.91778809 31.9103125 -124.21057617 31.508125 -123.48193359 31.09375 C-100.34654164 18.0683259 -75.17537591 9.31948539 -49.1875 4 C-48.46860596 3.85264404 -47.74971191 3.70528809 -47.0090332 3.5534668 C-31.36274391 0.57960912 -15.88931954 -0.06050362 0 0 Z " fill="#EC407A" transform="translate(255.625,-0.3125)"/>
<path d="M0 0 C1.24814331 1.40678023 2.4230839 2.87879704 3.5625 4.375 C7.15119162 8.97788707 10.92169412 13.33071738 14.859375 17.63671875 C16.72852907 19.70029213 18.52323362 21.80514613 20.3125 23.9375 C35.46401264 41.24853858 54.7173735 55.09795774 76.71484375 61.8984375 C85.44903862 64.82714493 91.01078136 70.0891408 95.75 77.875 C103.20197161 96.50492902 98.67275298 117.06834022 91.40625 134.96875 C85.65070393 147.37514931 77.87032969 156.89158022 65 162 C38.92934835 171.52719983 10.09028076 168.72852499 -17 166 C-17.17879132 159.50831709 -17.3006125 153.01727806 -17.38452148 146.52368164 C-17.41953159 144.31901322 -17.46715664 142.11450505 -17.52807617 139.91040039 C-18.1241537 117.77538697 -18.1241537 117.77538697 -11.83325195 109.92822266 C-11.22827881 109.29190918 -10.62330566 108.6555957 -10 108 C-9.42386963 107.31728027 -8.84773926 106.63456055 -8.25415039 105.93115234 C-2.03106156 98.71717727 7.54132223 93.86751187 17 93 C25.09484332 92.61373154 32.9756587 92.53906723 40.88671875 94.5625 C43.30033057 95.06217565 45.54192534 95.06887775 48 95 C47.67 93.35 47.34 91.7 47 90 C30.77363612 85.61731651 14.28595929 84.52864726 -0.99609375 92.578125 C-6.22244826 95.72670221 -10.63045813 99.2221494 -14.7578125 103.71484375 C-15.16773438 104.13894531 -15.57765625 104.56304687 -16 105 C-16.33 105 -16.66 105 -17 105 C-17.11786788 101.06275931 -17.18780174 97.12598239 -17.25 93.1875 C-17.28351563 92.08728516 -17.31703125 90.98707031 -17.3515625 89.85351562 C-17.47303482 79.55873647 -15.47474755 70.93897533 -8.3671875 63.2421875 C-7 62 -7 62 -5 61 C-5 59.68 -5 58.36 -5 57 C-8.36589376 57.06731788 -11.01186502 57.19628653 -13.6953125 59.37890625 C-23.08680626 69.9266392 -23.29518815 83.11372252 -23.4140625 96.5390625 C-23.43281479 97.91483671 -23.45239107 99.29059991 -23.4727478 100.66635132 C-23.52364699 104.25333098 -23.5634958 107.84034777 -23.60089111 111.42749023 C-23.64119858 115.10148987 -23.69216758 118.77534078 -23.7421875 122.44921875 C-23.8384456 129.63271722 -23.92201941 136.8162756 -24 144 C-29.28 144 -34.56 144 -40 144 C-40.33 122.22 -40.66 100.44 -41 78 C-42.65 78 -44.3 78 -46 78 C-46.33 99.78 -46.66 121.56 -47 144 C-52.61 144 -58.22 144 -64 144 C-64.02187378 141.42904541 -64.02187378 141.42904541 -64.04418945 138.80615234 C-64.09623773 133.08641976 -64.16162489 127.36691925 -64.23571491 121.64743614 C-64.28007935 118.18620593 -64.31940535 114.7250843 -64.34643555 111.26367188 C-64.377885 107.2666419 -64.43265313 103.27020471 -64.48828125 99.2734375 C-64.49467117 98.05514252 -64.5010611 96.83684753 -64.50764465 95.58163452 C-64.69279703 84.54248309 -66.07903114 73.54085861 -71.3125 63.6875 C-72.22708984 61.95693359 -72.22708984 61.95693359 -73.16015625 60.19140625 C-74.76096085 57.41463904 -76.43468377 54.76422535 -78.25 52.125 C-84.45777096 42.99592506 -85.3188434 33.80409769 -84 23 C-82.49915145 15.87861038 -79.93333622 9.13646589 -76 3 C-74.80117187 3.50660156 -74.80117187 3.50660156 -73.578125 4.0234375 C-62.35022169 8.58312593 -52.4159359 10.15190898 -40.375 10.25 C-39.06885742 10.2641394 -39.06885742 10.2641394 -37.73632812 10.27856445 C-29.106061 10.23541312 -21.22784936 8.74493174 -13.1875 5.5625 C-12.12917969 5.15128906 -11.07085937 4.74007812 -9.98046875 4.31640625 C-6.97415481 3.06279786 -6.97415481 3.06279786 -4.23828125 1.33984375 C-2 0 -2 0 0 0 Z " fill="#FEFDFC" transform="translate(207,225)"/>
<path d="M0 0 C1.26995037 1.03857225 2.52000358 2.10190567 3.75 3.1875 C4.41644531 3.76113281 5.08289063 4.33476562 5.76953125 4.92578125 C15.28627899 13.71467066 20.25099953 24.14532004 21.19140625 36.94921875 C21.67538796 49.6953509 20.04292194 58.72094253 11.55078125 68.796875 C-1.96492613 82.11152227 -17.86528843 84.64842638 -36.00415039 84.61914062 C-51.5009957 84.35860116 -63.62735966 79.67598015 -75.37109375 69.31640625 C-83.91472288 60.47880278 -85.9561535 50.37611462 -85.77148438 38.48364258 C-85.19808755 24.72602828 -78.70076284 12.53277706 -68.66796875 3.1015625 C-48.88849483 -12.55585628 -21.07334407 -15.16454367 0 0 Z " fill="#FEFBFB" transform="translate(198.25,144.8125)"/>
<path d="M0 0 C1.375 2.3125 1.375 2.3125 1.25 4.9375 C0.375 7.3125 0.375 7.3125 -1.625 9.3125 C-3.45034149 9.59843166 -5.28642835 9.81756441 -7.125 10 C-18.34691098 11.75635644 -25.96499998 19.51695649 -32.625 28.3125 C-40.28822104 39.99319326 -45.9744579 52.83209651 -50.1875 66.125 C-54.0150756 77.86618047 -59.56886891 86.1083493 -68.1472168 94.81225586 C-69.18359579 95.86438686 -70.20752084 96.92886244 -71.22192383 98.00219727 C-75.57951397 102.53251394 -80.27408801 106.18084184 -85.4375 109.75 C-86.19998047 110.29076172 -86.96246094 110.83152344 -87.74804688 111.38867188 C-93.35847622 115.3125 -93.35847622 115.3125 -95.625 115.3125 C-95.36569171 113.76885301 -95.09190524 112.2276362 -94.8125 110.6875 C-94.66167969 109.82898438 -94.51085937 108.97046875 -94.35546875 108.0859375 C-92.76525475 102.0482266 -90.31617829 98.63609241 -85.375 94.875 C-71.75017457 84.07526961 -64.37712051 72.79860978 -59.2121582 56.28051758 C-52.460295 34.82262081 -40.2597065 12.54195072 -19.828125 1.39453125 C-13.63063745 -1.64927026 -6.2214386 -3.99949624 0 0 Z " fill="#FEFAFA" transform="translate(401.625,242.6875)"/>
<path d="M0 0 C0.72445312 -0.00322266 1.44890625 -0.00644531 2.1953125 -0.00976562 C5.9807029 0.02864701 7.78295894 0.16780596 11 2.3125 C12.14730175 8.43144264 9.80150545 11.86393637 6.41015625 16.8828125 C4.94518981 19.4069375 4.40368206 21.44073648 4 24.3125 C8.33229715 23.4520861 8.33229715 23.4520861 12 21.3125 C13.66617115 21.27186168 15.33388095 21.269779 17 21.3125 C17.495 23.7875 17.495 23.7875 18 26.3125 C11.89938319 31.05514349 7.07411475 32.10102494 -0.5625 31.9375 C-1.9227832 31.96650391 -1.9227832 31.96650391 -3.31054688 31.99609375 C-9.80744736 31.94898062 -13.08636438 30.55885177 -18 26.3125 C-17.67 24.6625 -17.34 23.0125 -17 21.3125 C-10.125 22.1875 -10.125 22.1875 -9 23.3125 C-7.33382885 23.35313832 -5.66611905 23.355221 -4 23.3125 C-4.64060711 19.79321536 -6.10608271 17.40681419 -8.0625 14.4375 C-10.42310901 10.58448674 -12.01481988 7.93556836 -11 3.3125 C-8.41718707 -0.78101483 -4.33932713 -0.09651528 0 0 Z " fill="#EC457D" transform="translate(166,180.6875)"/>
<path d="M0 0 C2.00456756 5.0233984 2.34953004 9.36415083 2.3125 14.6875 C2.30839111 15.87472656 2.30839111 15.87472656 2.30419922 17.0859375 C2.18439378 23.83910855 2.01318502 31.98681498 -3 37 C-3.4125 36.443125 -3.825 35.88625 -4.25 35.3125 C-11.43373077 25.81971291 -18.70387191 19.05654594 -29 13 C-21.56670622 4.94578669 -11.04523188 -0.5387918 0 0 Z " fill="#FEF9FA" transform="translate(221,120)"/>
<path d="M0 0 C10.50617399 1.63026838 20.75765617 6.09059819 28 14 C27.3709375 14.42410156 26.741875 14.84820312 26.09375 15.28515625 C16.46036982 21.88634297 9.06281537 28.66431054 2 38 C-3.06354199 32.93645801 -3.21265218 20.99475188 -3.375 14.0625 C-3.25703333 8.75400002 -2.25373655 4.78919018 0 0 Z " fill="#FEF9FA" transform="translate(112,119)"/>
<path d="M0 0 C5.61 0 11.22 0 17 0 C17 4.95 17 9.9 17 15 C14.35409986 15.02684679 11.70846904 15.04676357 9.0625 15.0625 C7.93038086 15.07506836 7.93038086 15.07506836 6.77539062 15.08789062 C4.85005687 15.09652441 2.92464419 15.05224333 1 15 C0 14 0 14 -0.09765625 10.83984375 C-0.04882812 5.41992188 -0.04882812 5.41992188 0 0 Z " fill="#FEF8F9" transform="translate(143,376)"/>
<path d="M0 0 C5.28 0 10.56 0 16 0 C16 4.95 16 9.9 16 15 C10.72 15 5.44 15 0 15 C0 10.05 0 5.1 0 0 Z " fill="#FEFDFC" transform="translate(167,376)"/>
<path d="M0 0 C3.70390021 2.02666238 5.65363011 3.48044516 8 7 C8.25 9.5625 8.25 9.5625 8 12 C7.34 12.66 6.68 13.32 6 14 C4.0625 13.9375 4.0625 13.9375 2 13 C0.25 10.4375 0.25 10.4375 -1 8 C-3.40877257 8.11341534 -3.40877257 8.11341534 -6 9 C-7.84434349 11.46115547 -7.84434349 11.46115547 -9 14 C-12.875 13.125 -12.875 13.125 -14 12 C-13.91264228 7.45739857 -13.43911328 5.49138867 -10.375 2.0625 C-6.4020042 -0.36544188 -4.57443948 -0.73517777 0 0 Z " fill="#ED4B81" transform="translate(189,157)"/>
<path d="M0 0 C2.50322351 1.80852157 3.36018005 3.24933428 5 6 C5.4375 8.75 5.4375 8.75 5 11 C4.34 11.66 3.68 12.32 3 13 C1.0625 12.9375 1.0625 12.9375 -1 12 C-2.75 9.4375 -2.75 9.4375 -4 7 C-6.40877257 7.11341534 -6.40877257 7.11341534 -9 8 C-10.84434349 10.46115547 -10.84434349 10.46115547 -12 13 C-15.875 12.125 -15.875 12.125 -17 11 C-16.83857919 6.72234855 -16.68438372 4.66683542 -13.5625 1.625 C-8.82005547 -1.38240385 -5.43148626 -1.52643493 0 0 Z " fill="#ED4A81" transform="translate(152,158)"/>
<path d="M0 0 C1 1 1 1 1.0625 3.5625 C1.041875 4.366875 1.02125 5.17125 1 6 C-0.89453221 6.64964023 -2.79068649 7.29455115 -4.6875 7.9375 C-5.74324219 8.29714844 -6.79898438 8.65679687 -7.88671875 9.02734375 C-13.21851079 10.69311065 -13.21851079 10.69311065 -16 11 C-16.66 10.34 -17.32 9.68 -18 9 C-18 7.125 -18 7.125 -17 5 C-11.44853583 0.58406259 -6.96612744 -0.31664216 0 0 Z " fill="#EC4980" transform="translate(142,183)"/>
<path d="M0 0 C6.54062452 0.45934157 10.77591785 2.10310183 15.99609375 6.0546875 C15.66609375 7.3746875 15.33609375 8.6946875 14.99609375 10.0546875 C12.80859375 10.7421875 12.80859375 10.7421875 9.99609375 11.0546875 C8.29492999 10.11457068 6.63105082 9.10573133 4.99609375 8.0546875 C2.67917921 7.33302559 0.34760452 6.65409221 -2.00390625 6.0546875 C-2.38609392 4.39854093 -2.71785727 2.73011726 -3.00390625 1.0546875 C-2.00390625 0.0546875 -2.00390625 0.0546875 0 0 Z " fill="#EC457E" transform="translate(192.00390625,182.9453125)"/>
<path d="M0 0 C6.20221764 0.4893688 10.23466417 2.37722519 15.21484375 6.0546875 C14.88484375 7.7046875 14.55484375 9.3546875 14.21484375 11.0546875 C9.72206865 11.45110883 7.13051412 10.17567562 3.21484375 8.0546875 C1.82265625 7.6215625 1.82265625 7.6215625 0.40234375 7.1796875 C-1.78515625 6.0546875 -1.78515625 6.0546875 -2.66015625 3.4921875 C-2.70140625 2.6878125 -2.74265625 1.8834375 -2.78515625 1.0546875 C-1.78515625 0.0546875 -1.78515625 0.0546875 0 0 Z " fill="#EC467E" transform="translate(191.78515625,195.9453125)"/>
<path d="M0 0 C0.625 2.375 0.625 2.375 1 5 C-2.76570778 8.76570778 -9.74748902 10.522499 -15 11 C-15.66 10.34 -16.32 9.68 -17 9 C-17 7.125 -17 7.125 -16 5 C-10.5077441 0.82110964 -6.82879719 -0.12884523 0 0 Z " fill="#EC477F" transform="translate(142,196)"/>
<path d="M0 0 C1.98 0 3.96 0 6 0 C5.34 1.65 4.68 3.3 4 5 C3.34 5 2.68 5 2 5 C1.34 3.35 0.68 1.7 0 0 Z " fill="#FDF1F4" transform="translate(163,188)"/>
</svg>
