<?xml version="1.0" encoding="UTF-8"?>
<svg version="1.1" xmlns="http://www.w3.org/2000/svg" width="512" height="512">
<path d="M0 0 C1.01790619 0.00215515 2.03581238 0.0043103 3.08456421 0.00653076 C17.69363523 0.05620146 32.02575853 0.30709809 46.375 3.3125 C47.34985352 3.51117676 48.32470703 3.70985352 49.32910156 3.91455078 C97.7109774 14.03517194 141.69928269 35.9516877 177.375 70.3125 C178.3640332 71.26068604 178.3640332 71.26068604 179.37304688 72.22802734 C188.86130305 81.37247479 197.6012044 90.66984009 205.375 101.3125 C206.23306152 102.46355017 207.09113451 103.61459177 207.94921875 104.765625 C213.98736829 112.95680614 219.34595521 121.47054105 224.375 130.3125 C224.73948242 130.94430176 225.10396484 131.57610352 225.47949219 132.22705078 C247.08534998 169.97532572 256.85198095 212.74189997 256.6875 255.9375 C256.68534485 256.95540619 256.6831897 257.97331238 256.68096924 259.02206421 C256.63129854 273.63113523 256.38040191 287.96325853 253.375 302.3125 C253.07698486 303.77478027 253.07698486 303.77478027 252.77294922 305.26660156 C242.65232806 353.6484774 220.7358123 397.63678269 186.375 433.3125 C185.74287598 433.97185547 185.11075195 434.63121094 184.45947266 435.31054688 C175.31502521 444.79880305 166.01765991 453.5387044 155.375 461.3125 C154.22394983 462.17056152 153.07290823 463.02863451 151.921875 463.88671875 C143.73224019 469.92427396 135.22961724 475.30707302 126.375 480.3125 C125.66778809 480.7146875 124.96057617 481.116875 124.23193359 481.53125 C101.09654164 494.5566741 75.92537591 503.30551461 49.9375 508.625 C49.21860596 508.77235596 48.49971191 508.91971191 47.7590332 509.0715332 C33.08339502 511.86090125 18.55831162 512.66142619 3.64770508 512.62817383 C0.70811513 512.6250221 -2.2304558 512.64854926 -5.16992188 512.67382812 C-18.54306192 512.71848737 -31.43916711 511.51301542 -44.625 509.3125 C-46.33055054 509.03031616 -46.33055054 509.03031616 -48.07055664 508.74243164 C-91.33802759 500.97044532 -132.38793216 480.98345309 -165.625 452.3125 C-166.37007813 451.67828125 -167.11515625 451.0440625 -167.8828125 450.390625 C-181.38779833 438.57948485 -194.05918743 425.82889772 -204.625 411.3125 C-205.48149066 410.16255169 -206.33826433 409.01281411 -207.1953125 407.86328125 C-213.23534209 399.67315742 -218.61867614 391.16870382 -223.625 382.3125 C-224.0271875 381.60528809 -224.429375 380.89807617 -224.84375 380.16943359 C-237.8691741 357.03404164 -246.61801461 331.86287591 -251.9375 305.875 C-252.08485596 305.15610596 -252.23221191 304.43721191 -252.3840332 303.6965332 C-255.35789088 288.05024391 -255.99800362 272.57681954 -255.9375 256.6875 C-255.93534485 255.66959381 -255.9331897 254.65168762 -255.93096924 253.60293579 C-255.88129854 238.99386477 -255.63040191 224.66174147 -252.625 210.3125 C-252.42632324 209.33764648 -252.22764648 208.36279297 -252.02294922 207.35839844 C-241.90232806 158.9765226 -219.9858123 114.98821731 -185.625 79.3125 C-184.99287598 78.65314453 -184.36075195 77.99378906 -183.70947266 77.31445312 C-174.56502521 67.82619695 -165.26765991 59.0862956 -154.625 51.3125 C-153.47394983 50.45443848 -152.32290823 49.59636549 -151.171875 48.73828125 C-142.98224019 42.70072604 -134.47961724 37.31792698 -125.625 32.3125 C-124.91778809 31.9103125 -124.21057617 31.508125 -123.48193359 31.09375 C-100.34654164 18.0683259 -75.17537591 9.31948539 -49.1875 4 C-48.46860596 3.85264404 -47.74971191 3.70528809 -47.0090332 3.5534668 C-31.36274391 0.57960912 -15.88931954 -0.06050362 0 0 Z " fill="#FCAFC6" transform="translate(255.625,-0.3125)"/>
<path d="M0 0 C0.9761566 -0.00467997 1.95231321 -0.00935994 2.95805031 -0.01418173 C6.22608344 -0.02613917 9.49369782 -0.01667133 12.76173401 -0.00723267 C15.10591374 -0.01129805 17.45009156 -0.01663974 19.79426575 -0.02316284 C26.15992765 -0.03684686 32.5254438 -0.03153301 38.89110827 -0.02202559 C44.87652793 -0.01520325 50.86193419 -0.02040927 56.84735347 -0.02480717 C69.42567052 -0.03335888 82.00392196 -0.02353073 94.58222825 -0.00740607 C105.36882164 0.00599382 116.15531815 0.00367134 126.94190979 -0.01016235 C139.47420234 -0.02622741 152.00643738 -0.03253166 164.53873879 -0.02332556 C171.17040088 -0.01858612 177.802009 -0.01802539 184.43366814 -0.02793503 C190.66927099 -0.03660177 196.90469095 -0.03058785 203.14027405 -0.01325226 C205.42877969 -0.00928572 207.71730073 -0.0104243 210.00580025 -0.01704025 C213.12988838 -0.02523906 216.25339059 -0.01495369 219.37744141 0 C220.73562246 -0.01003825 220.73562246 -0.01003825 222.12124151 -0.02027929 C228.92280972 0.04285822 233.66469111 1.20508065 239.00221252 5.69345093 C242.93285503 10.38838504 244.629238 14.36802183 244.61297607 20.49334717 C244.61710856 21.69391943 244.62124105 22.89449169 244.62549877 24.13144493 C244.61470445 25.44016375 244.60391012 26.74888256 244.5927887 28.09725952 C244.59186897 29.51973763 244.59227139 30.94221711 244.59388447 32.3646946 C244.59456005 36.16426254 244.57720868 39.96354542 244.55605316 43.76304626 C244.53893222 47.33206045 244.53816186 50.9010063 244.536026 54.47006226 C244.52030183 64.89872938 244.47841819 75.32734378 244.43971252 85.75595093 C244.37783752 109.06220093 244.31596252 132.36845093 244.25221252 156.38095093 C155.81221252 156.38095093 67.37221252 156.38095093 -23.74778748 156.38095093 C-23.80966248 133.07470093 -23.87153748 109.76845093 -23.93528748 85.75595093 C-23.96259949 78.39717651 -23.9899115 71.0384021 -24.01805115 63.45663452 C-24.03160095 54.47006226 -24.03160095 54.47006226 -24.03411865 50.26293945 C-24.03691341 47.32480065 -24.04815493 44.38682449 -24.06451416 41.44873047 C-24.08511557 37.69898276 -24.09125654 33.94947103 -24.0870043 30.19967198 C-24.08831216 28.17689818 -24.10439043 26.15415036 -24.12107372 24.13144493 C-24.11694123 22.93087267 -24.11280874 21.73030041 -24.10855103 20.49334717 C-24.1113164 19.4517211 -24.11408178 18.41009502 -24.11693096 17.33690453 C-23.36185418 11.29055124 -20.27282178 7.27458509 -15.74778748 3.38095093 C-10.46112231 0.03233393 -6.05590282 -0.04464887 0 0 Z " fill="#EC2A8E" transform="translate(145.74778747558594,145.61904907226563)"/>
<path d="M0 0 C1.06170095 -0.00521549 2.12340191 -0.01043099 3.21727562 -0.01580453 C4.39293398 -0.01134309 5.56859234 -0.00688164 6.77987671 -0.002285 C8.02157434 -0.00540498 9.26327198 -0.00852497 10.54259682 -0.01173949 C14.00037153 -0.01835957 17.4579305 -0.01594585 20.91569233 -0.00976706 C24.640346 -0.00525839 28.36498026 -0.01221841 32.08963013 -0.0177269 C39.39062907 -0.02663957 46.69158699 -0.02469058 53.99258757 -0.01890162 C59.92406776 -0.01439248 65.85553641 -0.01376897 71.78701782 -0.01594925 C72.62987921 -0.01625572 73.4727406 -0.01656218 74.34114325 -0.01687793 C76.05317672 -0.01751736 77.76521019 -0.01816578 79.47724366 -0.01882312 C95.5467086 -0.0245319 111.61615076 -0.01795994 127.68561196 -0.00722238 C141.48641345 0.00171362 155.2871813 0.00016174 169.08798218 -0.00905991 C185.0983123 -0.01975287 201.10862242 -0.02398253 217.11895561 -0.01783538 C218.824838 -0.01719825 220.53072039 -0.01656951 222.23660278 -0.01594925 C223.0760209 -0.0156407 223.91543903 -0.01533215 224.78029406 -0.01501425 C230.70750763 -0.01328438 236.63470856 -0.01620867 242.56192017 -0.02090836 C249.78111311 -0.0265064 257.00026254 -0.02502353 264.21945047 -0.01434687 C267.90572156 -0.00907557 271.59191999 -0.00705805 275.27819061 -0.01364517 C279.26674984 -0.02066489 283.255189 -0.01230694 287.2437439 -0.002285 C289.00723144 -0.00897717 289.00723144 -0.00897717 290.80634499 -0.01580453 C291.86804594 -0.01058903 292.92974689 -0.00537354 294.02362061 0 C294.94525686 0.0003247 295.86689312 0.00064941 296.81645775 0.00098395 C299.0118103 0.25168228 299.0118103 0.25168228 301.0118103 2.25168228 C301.24169991 4.78046798 301.34401406 7.16014688 301.3243103 9.68918228 C301.32012085 10.40912369 301.3159314 11.12906509 301.31161499 11.87082291 C301.06676744 23.55057208 297.29831705 34.62605103 289.3086853 43.29855728 C276.40060933 54.27481236 258.44414376 56.41037768 242.10946655 56.39212418 C241.2603089 56.3950953 240.41115126 56.39806642 239.53626156 56.40112758 C236.71560089 56.4097386 233.89498303 56.41131634 231.0743103 56.41281509 C229.04147757 56.41744872 227.0086457 56.42247411 224.97581482 56.42786026 C219.46918391 56.4409353 213.96256517 56.44741983 208.45592117 56.45187092 C205.008556 56.45481006 201.56119409 56.45891646 198.11383057 56.46337509 C187.30749624 56.47703821 176.50116944 56.48671021 165.69482708 56.49057698 C153.258628 56.49505251 140.82253911 56.512582 128.38637352 56.54157758 C118.74863654 56.56326132 109.11093042 56.57328485 99.47316933 56.5746181 C93.7287636 56.5756615 87.98446163 56.58146946 82.24008179 56.59943771 C76.8293006 56.61603413 71.41869987 56.61801828 66.00790215 56.60929871 C64.03480988 56.60853444 62.06170745 56.61278926 60.08864021 56.62275696 C41.31694493 56.71193949 20.05946509 55.99525382 5.0118103 43.25168228 C-4.0280291 34.08653818 -7.16428933 22.6615871 -7.1756897 10.06418228 C-7.18793579 9.34037369 -7.20018188 8.61656509 -7.21279907 7.87082291 C-7.21803033 5.99628757 -7.11067766 4.12221878 -6.9881897 2.25168228 C-4.43805918 -0.29844823 -3.53768826 0.00124637 0 0 Z " fill="#EC2A8E" transform="translate(108.98818969726563,309.74831771850586)"/>
<path d="M0 0 C3.88494777 0.49047077 5.25262273 2.19494158 8.0148468 4.93557739 C8.51300903 5.42337173 9.01117126 5.91116608 9.52442932 6.41374207 C11.1659163 8.02814749 12.78835133 9.66025891 14.41011047 11.29446411 C15.54573922 12.42418444 16.68203545 13.55323417 17.81896973 14.68164062 C20.19846554 17.04925348 22.56842808 19.42593084 24.93232727 21.80911255 C27.96149676 24.86116097 31.01478704 27.88769067 34.07591724 30.90764046 C36.42776445 33.23390227 38.76535714 35.57408452 41.09898949 37.9186058 C42.21918564 39.04028835 43.34398091 40.15739742 44.47341347 41.26977921 C46.05157551 42.82796062 47.60931128 44.40410163 49.1632843 45.98635864 C50.0542128 46.87904449 50.9451413 47.77173035 51.86306763 48.69146729 C53.76557922 51.34915161 53.76557922 51.34915161 54.34086609 54.34915161 C53.57753598 58.32975755 52.01762736 59.85197133 49.1632843 62.71194458 C48.67388367 63.21025284 48.18448303 63.7085611 47.68025208 64.2219696 C46.06312508 65.86035734 44.4252235 67.47598647 42.78511047 69.09133911 C41.65270492 70.22524726 40.52126356 71.36011907 39.39074707 72.49591064 C37.0201988 74.87078881 34.63941201 77.23474852 32.25068665 79.59133911 C29.18963137 82.61259151 26.15377995 85.6577745 23.12495899 88.7113018 C20.79301169 91.05743062 18.44908052 93.39127808 16.10124779 95.7215004 C14.97698059 96.83991829 13.85627337 97.96192659 12.73922157 99.08755112 C11.17628111 100.65848238 9.59815957 102.21236541 8.0148468 103.76272583 C7.11994034 104.65063812 6.22503387 105.53855042 5.30300903 106.45336914 C2.76557922 108.34915161 2.76557922 108.34915161 0.0625 108.76080322 C-2.23442078 108.34915161 -2.23442078 108.34915161 -4.23442078 106.34915161 C-4.02972329 101.7712868 -2.07137597 99.69742064 1.10176086 96.55886841 C2.02263992 95.63829147 2.94351898 94.71771454 3.89230347 93.76924133 C4.90323522 92.77873434 5.91438435 91.78844916 6.92573547 90.79837036 C7.95650838 89.77506156 8.98639888 88.7508632 10.01544189 87.72581482 C12.72091286 85.03558674 15.43818092 82.35758919 18.15809631 79.68197632 C20.9335825 76.94747169 23.69772292 74.20155099 26.46284485 71.45657349 C31.88605972 66.07620574 37.32179025 60.70871028 42.76557922 55.34915161 C41.25230707 51.77047476 39.16566547 49.53905729 36.39179993 46.84353638 C35.48778946 45.95904312 34.58377899 45.07454987 33.65237427 44.16325378 C32.92836898 43.46133754 32.92836898 43.46133754 32.18973732 42.74524117 C30.67564877 41.27530432 29.16972115 39.79746234 27.66601562 38.31690979 C23.39163786 34.10964004 19.10920684 29.91085083 14.80635071 25.73269653 C12.17173332 23.17330555 9.55190062 20.59956029 6.94101524 18.01597404 C5.94371159 17.03478959 4.94087991 16.05919158 3.93253517 15.08935738 C2.52521038 13.73488577 1.13766949 12.35994815 -0.24882507 10.98416138 C-1.04443344 10.20790909 -1.84004181 9.4316568 -2.65975952 8.63188171 C-4.23442078 6.34915161 -4.23442078 6.34915161 -4.04602051 3.6219635 C-2.915324 0.45554986 -2.915324 0.45554986 0 0 Z " fill="#FCADC5" transform="translate(290.2344207763672,169.65084838867188)"/>
<path d="M0 0 C0.35630084 3.6363863 0.39950066 5.43543932 -1.74633789 8.46786499 C-2.97211548 9.67365707 -2.97211548 9.67365707 -4.22265625 10.90380859 C-5.14361084 11.82431 -6.06456543 12.7448114 -7.01342773 13.69320679 C-8.02946849 14.67861031 -9.0458336 15.66367949 -10.0625 16.6484375 C-11.09513542 17.66987679 -12.12644991 18.69265307 -13.15649414 19.71670532 C-15.86590223 22.40324801 -18.59284215 25.0712837 -21.32385254 27.73583984 C-24.10954643 30.46006223 -26.8782487 33.20143442 -29.6484375 35.94140625 C-35.08248813 41.31118472 -40.53517734 46.66152224 -46 52 C-44.4997111 55.52918443 -42.47355524 57.73772843 -39.73388672 60.39794922 C-38.85312469 61.25919403 -37.97236267 62.12043884 -37.06491089 63.00778198 C-36.59466366 63.46330318 -36.12441643 63.91882439 -35.63991928 64.38814926 C-34.16334611 65.82053992 -32.69496229 67.26085684 -31.22879028 68.70388794 C-27.0610403 72.80456912 -22.8853063 76.89682862 -18.68896484 80.96826172 C-16.1191139 83.4627509 -13.56416794 85.97170165 -11.01813126 88.49048233 C-10.04678769 89.44573782 -9.06992273 90.39541293 -8.08749008 91.3392601 C-6.7138085 92.65989852 -5.36007832 94.00119492 -4.00732422 95.34326172 C-3.23170135 96.0995285 -2.45607849 96.85579529 -1.6569519 97.63497925 C0.43296092 100.61797905 0.40290472 102.43200468 0 106 C-1 107 -1 107 -3.22769165 107.35588074 C-7.15593817 106.85161242 -8.56401048 105.07749852 -11.35693359 102.3059082 C-11.86645569 101.806754 -12.37597778 101.30759979 -12.90093994 100.7933197 C-14.57969362 99.14164626 -16.23941274 97.47225389 -17.8984375 95.80078125 C-19.05888164 94.64624464 -20.21999355 93.49237885 -21.38174438 92.3391571 C-23.8125126 89.92027089 -26.23375336 87.49231615 -28.64892578 85.05786133 C-31.74767695 81.93620546 -34.87060581 78.84009155 -38.00131798 75.7505312 C-40.40371775 73.37368015 -42.79190805 70.98294743 -45.1761055 68.58785057 C-46.32224658 67.44022065 -47.47300294 66.29718116 -48.62836838 65.15883827 C-50.24022505 63.56690077 -51.83176346 61.95707554 -53.41943359 60.34106445 C-54.7858046 58.97205742 -54.7858046 58.97205742 -56.17977905 57.57539368 C-58 55 -58 55 -58.07826233 52.48753357 C-56.67398618 49.24789144 -54.8355569 47.34887266 -52.32836914 44.85839844 C-51.60145119 44.12819489 -51.60145119 44.12819489 -50.85984802 43.38323975 C-49.26106603 41.78215263 -47.64848826 40.19578889 -46.03515625 38.609375 C-44.91956409 37.49870772 -43.80478318 36.38722505 -42.69078064 35.27496338 C-40.35719738 32.94901317 -38.0173132 30.62967181 -35.67211914 28.31542969 C-32.66280281 25.34575656 -29.66441926 22.36535061 -26.67002201 19.38064194 C-23.81608877 16.53667043 -20.95721517 13.69768828 -18.09765625 10.859375 C-17.55085772 10.31597221 -17.00405918 9.77256943 -16.44069099 9.21269989 C-14.89682849 7.68038872 -13.34954756 6.15162375 -11.80102539 4.62402344 C-10.47984459 3.31760895 -10.47984459 3.31760895 -9.13197327 1.98480225 C-5.72651946 -1.18557164 -4.41175489 -1.04488931 0 0 Z " fill="#FCACC5" transform="translate(225,171)"/>
<path d="M0 0 C4.55555556 0.55555556 4.55555556 0.55555556 6 2 C6.23516389 7.01999687 5.66371532 11.55296228 4.6796875 16.46875 C4.54081116 17.17273422 4.40193481 17.87671844 4.2588501 18.60203552 C3.80365345 20.9026142 3.33931389 23.20124574 2.875 25.5 C2.55122577 27.12819858 2.2281567 28.75653752 1.90576172 30.38500977 C1.25030288 33.69355413 0.59195587 37.0015037 -0.06835938 40.30908203 C-1.13072463 45.64269138 -2.1583195 50.9825834 -3.18212891 56.32373047 C-5.96817155 70.85473935 -8.85172369 85.36602584 -11.75 99.875 C-11.94672302 100.86120331 -12.14344604 101.84740662 -12.34613037 102.86349487 C-12.9119103 105.69828747 -13.47913694 108.53278649 -14.046875 111.3671875 C-14.21436249 112.20660385 -14.38184998 113.0460202 -14.55441284 113.91087341 C-15.02915688 116.27542677 -15.51435571 118.63766533 -16 121 C-16.16359009 121.83436584 -16.32718018 122.66873169 -16.49572754 123.52838135 C-16.66117065 124.33644226 -16.82661377 125.14450317 -16.99707031 125.97705078 C-17.14186829 126.70223907 -17.28666626 127.42742737 -17.43585205 128.17459106 C-18 130 -18 130 -20 132 C-22.5625 132.1875 -22.5625 132.1875 -25 132 C-26 131 -26 131 -26.25 127.3671875 C-26.17216083 121.17654095 -24.79044316 115.27747696 -23.46630859 109.25177002 C-22.6427202 105.49549546 -21.85296497 101.73211158 -21.0625 97.96875 C-20.89395508 97.16821198 -20.72541016 96.36767395 -20.55175781 95.5428772 C-18.54396372 85.93314863 -16.77359086 76.28015958 -15 66.625 C-14.33153507 62.99724693 -13.66208663 59.36967599 -12.9921875 55.7421875 C-12.82749969 54.8501059 -12.66281189 53.95802429 -12.49313354 53.03890991 C-10.89264797 44.38683337 -9.2513057 35.74286896 -7.58007812 27.10418701 C-7.28041703 25.55399547 -6.98188509 24.00358515 -6.68457031 22.45294189 C-6.27468902 20.31695152 -5.86064784 18.18181067 -5.4453125 16.046875 C-5.21344238 14.84901367 -4.98157227 13.65115234 -4.74267578 12.41699219 C-2.61146613 2.61146613 -2.61146613 2.61146613 0 0 Z " fill="#FCABC4" transform="translate(266,158)"/>
<path d="M0 0 C25.74 0 51.48 0 78 0 C76.84671533 6.91970803 76.84671533 6.91970803 74 9 C70.70962516 10.09679161 68.23720316 10.14689322 64.77197266 10.17700195 C62.84449692 10.19625481 62.84449692 10.19625481 60.87808228 10.21589661 C59.47341294 10.22406357 58.06873924 10.23150739 56.6640625 10.23828125 C55.60187563 10.24439454 55.60187563 10.24439454 54.51823044 10.25063133 C50.7712712 10.27147108 47.02434837 10.28578271 43.27734375 10.29516602 C39.41132426 10.30623587 35.54587948 10.34064751 31.68006325 10.38033772 C28.7031651 10.40650128 25.72640411 10.41485748 22.74940109 10.41844749 C21.32445766 10.42331294 19.89952035 10.43492592 18.47468948 10.45348549 C16.47887319 10.47787009 14.48277654 10.47449279 12.48681641 10.4699707 C11.35225006 10.47583694 10.21768372 10.48170319 9.04873657 10.48774719 C5.22590015 9.87615689 3.61356363 8.84201888 1 6 C0.67 4.02 0.34 2.04 0 0 Z " fill="#FCADC5" transform="translate(217,319)"/>
</svg>
